<svg xmlns="http://www.w3.org/2000/svg" viewBox="0 0 302 300.1"><defs><style>.cls-1{fill:none;stroke:red;stroke-miterlimit:10;stroke-width:7px;}.cls-2{fill:#f40b0b;}</style></defs><title>expoferia</title><g id="Layer_2" data-name="Layer 2"><g id="CirculoMundo"><ellipse class="cls-1" cx="151" cy="150.05" rx="147.5" ry="146.55"/></g><g id="Mundo"><path class="cls-2" d="M160.41,284.84c-3-.07-3.81.59-4.4.46-1.12-.24-1.93-1-1.8,0s.48,1.23-.26,1.28-1.36,0-.48.53,1.67.13,2.55-.31,2.37-2,1.23-.69-2.46,1.8-.48,1.27,1-.84,2.73-.89,2.2.26,2.37,0-.62-.66-.75-1.19S163.44,284.91,160.41,284.84Z"/><path class="cls-2" d="M110.42,108c.62.19,2.29-.1,7.65,0s3-.22,2.42-1-1.71-.62-2.73-1.54-.26-1-1.19-1-2-.88-3.43-1.41-1.06,0-2.55-1.41-.26-.57-3.43-1-2.24-1-2.24-1L101,98.92l-3.78.48s-3.61.48-4.18,1.23A2.65,2.65,0,0,1,91.11,102c-.7.18-.18.53.66.66s.92.18,2.15-1.06.84-.35,2.77-.79.79-.62,1.93-.75,2,.57,1.14.84-.88.31.7.75.79.4,2.07.31,1,.4,2.11.66,1.1.7,2.95.57.92,0,1.23,1,.62,1.19,2.68,1.76S109.8,107.8,110.42,108Z"/><path class="cls-2" d="M143.78,113.35c-1.37-.25-.69,0-1.7-.08-1.7-.08-1.5,1.63-.28,1.57s.59,0,1.91.84.53-.28,1.19-.48,2.16-.58,2.09-.63-.87-.33-1.76-.79S145.15,113.6,143.78,113.35Z"/><path class="cls-2" d="M112,96.94c.66,0,1.19-.31,1.06-1.36s-1.06-3-1.76-2.86c-1.57.29-3.08-.79-1.19,1.71S111.38,96.9,112,96.94Z"/><path class="cls-2" d="M126.6,19c0-.84-.79-.11-.79-.11h-.42C126.17,19.29,126.63,19.56,126.6,19Z"/><path class="cls-2" d="M124.19,18.3c-1.17-.45-1.28.6-1.93.6h.83l2.31,0A11.26,11.26,0,0,0,124.19,18.3Z"/><path class="cls-2" d="M120.09,19.22s-1,.28-.26.41.4.19,1.76-.2a4.08,4.08,0,0,1,.67-.24H122C120.31,19.18,120.09,19.22,120.09,19.22Z"/><path class="cls-2" d="M123.52,19.34a3.09,3.09,0,0,1-1.76.67s.22,1.28.48,1.28H124a6,6,0,0,0,.19-1.27C124.15,19.65,123.52,19.34,123.52,19.34Z"/><path class="cls-2" d="M126.86,20.88c.31-.35,0-1.06,0-1.06l-.88.26-.35.79S126.55,21.23,126.86,20.88Z"/><path class="cls-2" d="M166.43,43.9c.69.53.63.82,1.52.26A3.6,3.6,0,0,0,169,43a.8.8,0,0,0,1.06-.16c.26-.33-.07-.36.46-.56s.86-.43.89-.56.63-.23,0-.76-1.78-.1-1.09-.92,2.67-.36.53-1.15-2-.79-3-.76.26.76-1.58.13-2.47-.56-1.78-1.29,1.81-1.75,1.65-2.11-.46-.59-1.22-.46a5.62,5.62,0,0,0-1.65.69,11.76,11.76,0,0,1-.56,1.62l-1.12,1.71L161,39.75s.26.07-.3.36-2,.13-1,.36,1.95.07.82.66-2.65.89-1.17,1,4.67,0,4.67,0L165,42l1.15.82a11.32,11.32,0,0,1,1.81-.36h.21a.8.8,0,0,1-.34.67C167.06,43.84,165.74,43.38,166.43,43.9Z"/><path class="cls-2" d="M157.17,45.62a4.9,4.9,0,0,0,.59.76c.23.2,0,0,.92-.2s.76-.36.86-.59-.86-.1-1.32-.46-.16-.23-.4-1.81-.49-.3-.49-.3l-1.48,1.46a5.7,5.7,0,0,0-.3,1.35c-.08.63.66.73,1.09.66s0,0,.1-.36A.79.79,0,0,1,157.17,45.62Z"/><path class="cls-2" d="M170.95,44c0,.26.82-.73.9,0s.25.86.25.86l1.25-.35.76-1,.2-.76s0-1-.53-.83-.46.3-.92.56-.36.59-.46.26a9,9,0,0,1-.1-1.45c-.86.4-1,.89-1,.89a.68.68,0,0,0-.53.79A3.71,3.71,0,0,1,170.95,44Z"/><path class="cls-2" d="M149.81,10.15c3.83.35,4.79.09,4.79.09l3.12,1.1c3.12,1.1.53.31,2,.79s.7,0,1.89,0,.57.44-.18.44a8.24,8.24,0,0,0-1.85.4c-1.1.22.13.35,1.54.75s1.71-.44,1.71-.44a.76.76,0,0,1,0,.79c-.26.35-.26.18-.84.84s0,0,.88.88a30.47,30.47,0,0,0,2.9,2.19,53.33,53.33,0,0,0,5.5,2.77l3.56.31a10.26,10.26,0,0,1,3.12.66c1.54.62.84.79,1.23.79a20.29,20.29,0,0,0,3,.31c.13-.18-.84-1.63-1.32-2.55s0-1.1,0-1.1l-.22-.7s-.66-1.41-.13-1.8.79-.05,3.3,0,.92-.09.26-1-.09-.53.35-.53.88.26,1.19,0,.62-.26,1.71-.26,2,.09,1-1-4.57-1-15.73-3.33-17.44-1.74-18.06-1.74-3.13.19-3.73.24a38.23,38.23,0,0,1-4,.28,17.76,17.76,0,0,1-2.8,0,7.87,7.87,0,0,0-2.34.23,5.44,5.44,0,0,0-.92.2,21.91,21.91,0,0,1,3.09.35C149,11,146,9.79,149.81,10.15Z"/><path class="cls-2" d="M200.89,19.8c2.08.16,2.51,1,3.46.53,0,0-4.45-2.51-5.57-2.64a21.52,21.52,0,0,0-3,0l.66,1.71S198.82,19.63,200.89,19.8Z"/><path class="cls-2" d="M232.06,39.45s1.85-.07,2-.33a2,2,0,0,0,0-2c-.59-.73-5.74-3.63-5.74-3.63a.82.82,0,0,0-.86.73l1.32,3.3Z"/><path class="cls-2" d="M251.12,59.52a7.78,7.78,0,0,0,1.27,4,13.05,13.05,0,0,0,1.41,1.93c.62.62,4,3.91,5.23,3.85s1.45,2.11,1.65,0,.79-1.52,0-2.77-1.25-2.18-1.91-3.1-1.65-1.19-1.65-2.77a14.41,14.41,0,0,1,.13-2.64c.13-1.06-13-13.06-13-13.06-2.51,0-5.08-2.31-2.51,0a29.47,29.47,0,0,1,2.9,2.77L247,49.87s4.29,3.36,4.09,4.48-5.08-1.19-4.62,0S251.17,57.5,251.12,59.52Z"/><path class="cls-2" d="M250,115.76c-.36-.3-.92,0-.92,0-.3.59-.33.79.2,1s.73,0,.73,0S250.39,116.06,250,115.76Z"/><path class="cls-2" d="M251.28,116.75c-.59.36-.69.53-.43.73a7.61,7.61,0,0,0,.76.46l.49-.59Z"/><path class="cls-2" d="M252.57,116.26l.59.36.53-.16-.53-.82C252.5,116,252.57,116.26,252.57,116.26Z"/><path class="cls-2" d="M253.13,118.07l.76.56.56-.26-.76-1A.87.87,0,0,0,253.13,118.07Z"/><path class="cls-2" d="M253.29,120c.4.3.33.89.69.53l.36-.36-1.06-.79C253.09,119.59,252.9,119.68,253.29,120Z"/><path class="cls-2" d="M251.84,120.41a1.09,1.09,0,0,0,.49.73.7.7,0,0,0,.56,0s-.3-.82-.33-1S251.84,120.41,251.84,120.41Z"/><polygon class="cls-2" points="249.96 120.38 250.71 121.04 251.08 120.38 250.46 119.72 249.96 120.38"/><path class="cls-2" d="M195.58,287c-1.06-.09-2.29-.22-2.29-.22-.79.22-.48,1.06-.48,1.06l1.1.79s1.58.84,2.11.53,1.71.44.75-.79S196.64,287.06,195.58,287Z"/><path class="cls-2" d="M126,284.17c0-.18-.42-.25-.42-.25s-.29.32,0,.19c.1,0,.2,0,.29.14S126,284.22,126,284.17Z"/><path class="cls-2" d="M126.46,284.86h0Z"/><path class="cls-2" d="M125.83,284.43c-.24,0-1-.13-1.15,0a5.28,5.28,0,0,1-1.26.32v.51l1.28.26,1,0a3.18,3.18,0,0,1,.78-.33h-.3A2.84,2.84,0,0,0,125.83,284.43Z"/><path class="cls-2" d="M128.49,115.63c.75-.31,1.19-1.41,2.05-2.11s.85.53,2.52-.13.31-.62,2.42.4,1.76.79,2.46-.53-2.37-1.8-4-2.86-1.41-1.23-4.57-1.63-1.32.66-2.77-.22-1.73-.53-3.52,0c-1.16.34-.18,1,1.23,1s1,.48,1,1.32-.57.7-1.41,1a12.23,12.23,0,0,1-4.09.87c-2.51.18,0,1.06,0,1.06a11.63,11.63,0,0,0,3.87.35c2.37-.13,1.58-.7,3.74-.09l.1,0C129.44,114.7,127.75,115.93,128.49,115.63Z"/><path class="cls-2" d="M292.17,127.89a144.76,144.76,0,0,0-22.24-55.12l-2.06-2.18c-2.31-.92-2.9-1.38-3.5-.92s-1.45,1.25-1.45,1.65,2,.26,0,.4-2.31.53-2.7,0-1.32-2.84-1.19-1.78,1.45,3.17,1.19,4.16a14.24,14.24,0,0,0-.33,3,26.39,26.39,0,0,0,1.19,5.08,2,2,0,0,1,1.25,2.51c-.46,2-.46,2.24-.73,3.1s-.84.34-1.05,1.31a21.44,21.44,0,0,1,4.94.67s.82.73,2.12,2l0,0a3.28,3.28,0,0,0-.47,1.75c.09,1-.35,1.76-1.19,1.32s-3.12-2.64-2.33-.7,2.29,2.9,1.23,4-1.85-1.32-1.06,1.06,2.81,5.19,1.32,5.28c-1.08.06-3.6-.61-5.54-.55a11.42,11.42,0,0,0,1.54,3.17c.66,1-.66,1.34.7,3.1a6.38,6.38,0,0,1,1.06,4.57,5.79,5.79,0,0,0,.28,2.22c.07.23.16.47.27.72.56,1.32-.41,2.15-.54,2.86s-.09.31.92,2.11,1.85,1.1,1.19,2.77,0,2.55,1,3.56,1.27.09,1.32,1.63a2.2,2.2,0,0,0,.86,1.65c.43.36.87.55.94.64s2.15,2.11,2.07,3.56.87,3.86,3.39,7.19l.22.29c2.68,3.47,3,7.39,4.79,5.58a12.1,12.1,0,0,1,4-2.51c.35-.26.31-.92,1.28-1s1.45-.09,1.32-1a3,3,0,0,1,.92-2.24s-.31-8.93,0-9.63a8.81,8.81,0,0,0-.67-4.57.69.69,0,0,0-.38-.32.66.66,0,0,1,.44.32,8.78,8.78,0,0,1,.64,4.57c-.32.7,0,9.63,0,9.63.35-.31,1.36-1,1.53,1.54s-.14,2.68.57,2.64,1.71-.62,1.89,1.5c.07.88.79-7.38,1.6-17.34Q292.45,129.44,292.17,127.89ZM270.71,121h0l.09.19Zm.8-25.31h0l-.11.05Zm-.12,32.3a3.74,3.74,0,0,0,.51.29A3.72,3.72,0,0,1,271.38,128Zm13.19-8.7a8.58,8.58,0,0,1,.05,1.11,9.1,9.1,0,0,0-.05-1.08C284.31,116.42,282,111,282,111S284.31,116.39,284.58,119.33Zm-9.23,19h0Zm4.64-4.61h0a.56.56,0,0,0,.07-.28A.71.71,0,0,1,280,133.67Zm2,.83h0l.12.09Zm-.51-2.38c.06.42.62,1,.62,1.77C282.06,133.13,281.49,132.54,281.46,132.13Zm-1.5-5.71a14.22,14.22,0,0,0-.4,3.52,14.4,14.4,0,0,1,.39-3.84c.66-2.9,0-3.73,2.16-4.9a2.53,2.53,0,0,1,1.48-.36,1.69,1.69,0,0,0,0,1.27c-.37,0-.85-.6-1.44-.27C280,123,280.63,123.51,280,126.41Zm5.78,1.83a2,2,0,0,0-.37,1.37c0,1-.06,1.35-1.45,1.64,1.11-.28.3-.65.3-1.63,0-.45-1-.84-1-1.11h0c1.05-2.31-1-4.56-.08-6.33.38,1.25,1.68,2.88,2.17,4.35A3.87,3.87,0,0,1,285.74,128.25Z"/><path class="cls-2" d="M232.52,179.21c-1.85.07-1.93.13-4.88-2.51S223,174,221.83,174s-3.39.31-3.56-.13-.66-.48-1.1,0-.88,0-2.64-.88-1.67-.13-2.64.66-2.07,1.89-2.07,1.76.09-.57.09-.88a4.39,4.39,0,0,1,.57-1.67c.44-.92,0-1.41-.4-1.89s-1.32-.57-2.2-.44,0-.7-.48-1.19-2.46-.57-4.4-1.41-2.37-.48-3.34.13-1,2.07-1.71,2.46-1.71,1.14-1.67.92-.7-.53.18-.84.75-.48,1.67-1.27.44-1,.84-2.15,0-.44-1.32-.62-2.55-1.19-3.78-2-1.14,1.14-1.14,1.14a4.29,4.29,0,0,0-2,1.14,6.43,6.43,0,0,0-1.32,2.46c-.26.88-1.19.62-.92-.09s.88-1.14,2.15-3.17.57-.31,1.41-.81.59-.26.73-.86,1.74-2.29,1.74-3-.66,0-1.14-.13-1.23-1.23-1.93-3-.59-3.69-2.13-4c-.75-.13-2.12-.28-2.12-.5s.9-.53.32-1c-1.14-.84-.54-.2-1.26-1.32s-.79-.92-1.64-1.12a11.74,11.74,0,0,1-2.13-.81l0,0-1.12-.52c-1.65-.79-1.91,0-1.91,0s-2-.4-2.84.46-.92-.2-3-.2c-1.16,0-1.45-.08-1.58-.3a4.66,4.66,0,0,0-.33-.75c-.53-.79-2.55-1.36-3.88-1.36s-.16-.4,0-1.23-.13-.44-.84-1.32a5.89,5.89,0,0,0-2.33-1.39c-.23-.11-.46-.23-.7-.37-1.28-.75-1.28-.31-1.71-.66s-.33-.64-.67-1.59l-.13-.34a2.33,2.33,0,0,0-1.9-1.24c-.35-.07-.65-.11-.84-.16a20.42,20.42,0,0,1-2.93-1c-.36-.26-.36-1.09-.76-1.91s-.56,0-3.07-.13-1.91-.1-1.95.56,0,.63-1.32,1.29-1.15.53-2.47.2-2.41-1.62-3.07-2.14-.89,0-1.88.53a3.65,3.65,0,0,1-2.87.33c-1.32-.2-.76-.56-.69-1.85s-1.12-1.25-4.19-1.62-2.41.92-4.19,1.19-1.22,0-1.22.89,1,2.77,1.06,3.83-.2,1-1.06,1.25-1.09.76-1.06.2-.46-.79-.89-1.62.26-.66.43-1.25.49-.36.89-1-.1-1.15-.2-1.75-.4-.63-1-1.58.1-.53,1.06-.86.76-.49,1.15-1.52-.79-.89-2.34-.43-.76,1.78-1.45,1.42-1.12-.63-1.32.59a1.18,1.18,0,0,1-1.68,1c-.4-.16-1.39-.59-1.58-.3s-.3,1.12-1.15.82-.63,0-1.88.59-1.25,2.34-1.25,4-1.06-.26-1.85,1.19-2,.2-2,2.11-.46.76-.56.46a2,2,0,0,0-.29-.52,8.93,8.93,0,0,0-.8-.93c-.73-.76-1-.4-2.08-1.85s-3.92-.2-5.71,0-2.62.91-4,1.33-1.67-.46-2-1.3-.44-.2-.48.4-.31,0-.62-.07-.46-.31-.29-1-.1-.48-.56-.58a2.5,2.5,0,0,1-.39-.12c-.7-.29-.84-.7-1.1-1.23a7.09,7.09,0,0,1-.63-1.58A5.48,5.48,0,0,0,92,133.5s-.33-.66-.63-1.38-.23-.69.4-1.09,0-.23-.13-1.19.23-.59,1-1.15,0-1.3-.07-2.13.09-.53.48-1.36a17.19,17.19,0,0,1,1-1.74.77.77,0,0,0-.63-1.2c-.26,0-1.09.23-1.68.26s.59-.26,1-.69.82-.2,1.22-.56.23-.46-.23-.53-.82-.4-1.65-1-1.75-.26-2.21-.82-1.55.46-2.18,0-.81,0-1.87.4a5.12,5.12,0,0,1-3.3-.4c-1.1-.4-1.19.4-1.58,0s-.18-.22-1,0-.7-.35-1.19-.35c-.16,0-.14-.07,0-.2s1.06-.75,1.8-1.34c1.1-.88.79-1.85.92-2.95s.53-1,1.19-1.27c.35-.14.22-.19.24-.53a4,4,0,0,1,.9-1.89c1.54-2.2.84-1.23.88-2a2.91,2.91,0,0,1,.48-1.8c.4-.53,1.71-1.71,2.29-2.51s.62-1.36-.66-1.23-1.54.7-2.11,0-2.86-.13-4.48.09-1.76.88-2.15,2.51a12.48,12.48,0,0,1-1.71,4c-.57.79-1.19,1.06-3.47,1.19s-.48.35-1.71.53-1,.13-2.68,1-1.67-.44-2.15-1.32-1.54.22-2.29-.62-.23-1.65-.2-2.57-1-1-1.09-2.57a35,35,0,0,1-.49-4.35c0-2.31,0-1.45,1.19-4s.4-2.18,1.19-3.1a2.81,2.81,0,0,0,.56-1.06,9.31,9.31,0,0,0,.23-2c.07-1,0-.66.49-1.32a1.9,1.9,0,0,0,.56-1.58c0-.82.3-.92,1.09-1.65s1-.56,1.32-1.15.23-.2,1.29-.2.53-.1,1-.53.26,0,1-.13.53-.2.66-.69-.16-.69.33-1.35.26.49,2.21-.16.79-.49,2.08.1,1,.23,2.11-.13.46.49,1,.59a5,5,0,0,1,1.48.43,1,1,0,0,0,1.48-.4c.36-.49.49,0,1,.43s.33-.43-.2-1.22.1-.66.16-1.45-.3,0-1,0-.63-.23-.16-.73,1,.13,2.67.26,1.52-.33,1.78-.66.16.1.2.76.41,0,1.86-.3.68-.59,2.76.2-.16,1.29,1.81,1.75,1.67-.71,2.86-.71S98.41,81,99,81.95s1.49.4,1.71,1.58-.61,1.32-.7,2.37.13,2.55.7,2.55.14.62.45,1.06,1.54,2.68,1.93,2.77,1.1.62,2.24-.62a4.06,4.06,0,0,0,.48-4.53c-.75-1-.18-1.23,0-2.11s-.22-.84-.7-2a12.25,12.25,0,0,1-.75-2.81c-.18-.92-.62-.88,0-1.8s1.13-2.3,1.89-2.92a30.85,30.85,0,0,1,2.84-1.78,28.65,28.65,0,0,0,3.1-2.31c1.06-.79,2.41-.53,2.67-1.06s.54-.42,2-.95a12.13,12.13,0,0,0,2.18-.95c1.19-.57,1.91-1.57.82-2.3s0-.43,1.78-.69-.23-.56-.79-1-.46-1-.3-1.68a3.4,3.4,0,0,0,.3-1.85c-.13-1,.26-1.35,1.09-2.14s0,.3-.16,1.25,0,.66.69,1.09.59.43.76-.23a11.1,11.1,0,0,1,.4-1.81c.26-.63.2-.07,1,.43s.4-.2,1.22-1,.59-.59.89-1.52c0,0-.92-.56.4-.73s.2-.46.86-1,.36-.1,2.18,0,1.78.07,2.24-.73.26,0,1.22.46,1.45-1,1.22-1.19-1-.36-.86-1.25,0-1.06,1.88-2.28,1.19-.3,2.11-.89.66-.53,1.48-.43,1-.17,1.58-.2.65-.41,1.79-.45.66-.31.64-1,.13-.29,1.5-.35a13.72,13.72,0,0,0,3.52-.86c1.28-.37,0,.42,0,.53s.48,0,1.76.15,0,.33-.11.57-.59.22-1.14.09-.55-.26-1.06-.07-2,.64-2,.64a10.68,10.68,0,0,1-.53,1c-.4.68-.4.64-.48,1.08s.55.92.9.95a7.5,7.5,0,0,0,1.87-.51,7.1,7.1,0,0,0,1.49-1c.44-.29,0-.33.31-.77s.64.31.64.31a1.75,1.75,0,0,0,.86-.33c.51-.33.29-.13,1-.18s.92,0,1.36-.4.26-.2,1.69-.42.64-.51.29-1-.33,0-.86-.44,0-.24-.46,0-.51-.07-1.87-.07-2-.35-2.07-.75.1-.43-1.19-.69-.56-.4-.56-1.32,0-.2-.79-.2-.16-.13.26-.86.49-.56.69-.92-.73-.13-1.32.23-1,.23-1.27-.25-.41-.36-1.17-.45-.2-.13,0-.2a2.26,2.26,0,0,1,.91-.12,1.81,1.81,0,0,1,.94.23l1.27-.16a11.8,11.8,0,0,0,1.68-.35c1-.28,1-.43.28-.79a3.94,3.94,0,0,0-2.45-.78,22.4,22.4,0,0,0-4.41.64s-1.6.44-2.42.7a8,8,0,0,0-2.29,1.28c-.81.59-1.08-.07-.55-.64s1.34-.88,2.41-1.79,1.14-.07,2.29,0,.92-.2,1.78-1.39.79-.4,1.78-.66a11,11,0,0,1,3,0s2.37.2,5.94.4,1.71-.4,3.89-1.52,1.14-1.17,3.28-1.25,1.47-.2,1.47-.2a2.66,2.66,0,0,0,1.43-.81c.88-.79-.47-.27-.31-1.07s-.2-.79-1-1.29-1.06,0-1.15-.53.16-.26-1.68-.26a5.61,5.61,0,0,0-3,.76,2,2,0,0,1-1.35.16c-.49-.1.53-.53.53-.53a6,6,0,0,0,1.88-.23,11.19,11.19,0,0,1,1.52-.56c1-.33,1.06-.3.49-.63s.33-.53-1.06-.26-1.52,0-1.75-.59-.2,0-1.25.1-1.12,0-1.25-.79-1.39-.2-2.24-.2-.49-.53,0-1.32-.13-.23-.16-.92-.23-.4-1.81-1.06a8.65,8.65,0,0,1-3.26-2.31c-1.15-1.12-.53,0-.66.23s-.92,1.25-1.25,1.65-.76,0-2.21.76-1.25.23-1.25.23a10.06,10.06,0,0,0-1.71-1.29c-.92-.53,0,0-.82-.69s0-.53.16-1.88,0,0-1.35.23-.82,0-1-.59-.92-.43-2-1.12-.69,0-2-.16a27.59,27.59,0,0,0-4,.07c-2,.07-.46.59-.92,1.12s-1.52.33-.92,1.45-.73,1.25-2.44,1.45-.46.26,1.91,1.71.2,1.38-.33,2.44-2.11,1.25-4.09,1.45-2.57.2-1.52.73-.13,2.64-.13,2.64l-.59,3.61s-1,2.29-1.85,2.29h-.59c-.59,0-1.12-2.49-1.12-2.49a16.26,16.26,0,0,1-1.12-2.7,3.42,3.42,0,0,1,0-2,9.6,9.6,0,0,1,1.12-2.14c.66-1.06-.92-.11-1.78,0a15.2,15.2,0,0,1-2.51.07c-1.06,0-.86-.29-2.57-1.22s-1.45-.28-2.9-1.33-3.25,0-4.57.3,0-.55.09-1.59-.07-1-.57-1.43.53-.88,3.12-2.33,2.37-1.56,4.48-1.65,1.47-.84,3.19-1.41,3.78.73,4.38,0,1.12-.7,2.33-1.43a5.23,5.23,0,0,0,1.47-1c.35-.34,1.79.16,2.58-.1s2.2-.62,3.74-1.14.26-.84.09-1.89,3.56.59,4.48.55c.76,0,.93-1.46,1.06-1.46h.33c-.23,0-.17.46-.2,1.33,0,1.23,0,0,.75,0s.75.12,1.63.55,0,.21-.25.48a6.51,6.51,0,0,1-1.86.57s-1.49.39-.7.49a8.11,8.11,0,0,0,2.07,0c.92-.08.62-.41,1.32-1.06s.35.09,1.36-.18.92.26.92.48-.53.44-1.41.76a3.37,3.37,0,0,0-1.32.65,9.48,9.48,0,0,1-2.37.57,28.58,28.58,0,0,0-3.46.66c-.39.22.78.79,2.14.72s1.76-.28,3.31-.32,1,.53,2.09,1.19.75.66,1.28.51a5.17,5.17,0,0,1,1.32-.12l4,.4a8,8,0,0,0,2.46-.28c.7-.33-2.15-.12-2.15-.12a10.68,10.68,0,0,1-2.42-1.09c-.66-.53,2.64.22,2.64.22l2.42.4a3.37,3.37,0,0,0,1.19-.78c.31-.43-.09-.63-1.14-1s-1.85.07-2.55-.37-.35-.79-.26-.92a29.46,29.46,0,0,1,3.47,1.23,2.16,2.16,0,0,0,1.71-.31c.88-.57,1.54-1,1.89-1.28s-3.52-.62-3.52-.62l-2.59-.22-2.29-.79a7,7,0,0,0,1.41-.62c1-.53-.92-.31-.92-.31l-2-.26-2.42-.18-2.41-1.19,1.68-.61a14,14,0,0,1,1.91-.76,9.5,9.5,0,0,0-4.17.75c-.56.12-1.62.46-2.75.73-.06-.26-.6,0-1.82-.07a18.22,18.22,0,0,0-3.1,0c-1.32.13-1.09,1.62-1.19.89s-.49-.36-1.95-.17-1.81,1.25-1,1.35,1.32.07,1.06.82-1.55.57-2.28.75-1,.24-1,.55a.63.63,0,0,1-.85.42c-.4-.13,0,0-.13-.49s.4-.36,1-.69,0-.66-1-.66-2.08,1-3.53,1,.56-.92,1.48-1.85-1.29-.4-2.28,0A4.12,4.12,0,0,0,115,15.18c-.23.89-1.32.76-2.41.76a12.2,12.2,0,0,0-4.22.76c-2.21.69-2.44.13-3-.16s.3-.53,1.09-.53a3.49,3.49,0,0,0,2.11-.4,13.49,13.49,0,0,1,1.65-.76c.46-.26-.76-.26-2.37-.4s-3.89,1-5.24,1.42.07.63-.26,1.48-1,.73-2.31.46-.73,0-2.21.46-1,.15-1.22-.48q-6.77,2.61-13.19,5.86C78.72,26.09,73.72,29,70,31.33q-2.26,1.46-4.47,3c-4.08,3-7.16,5.85-8.37,6.81s-.44,1.23-1.28,1.93,0,1.5-.84,2a3,3,0,0,0-.68.7,21,21,0,0,1-1.78,2.42c-1,1-1.5,2.51-3.61,4.13s-3.21,3-4.88,6.2a12.18,12.18,0,0,1-3.61,4.66,2.66,2.66,0,0,0-1.14,2.68,3.48,3.48,0,0,1-.92,2.81c-.62.44.13.62-.62,2.37s-.7,1.93.57,2.73.92.44.57,1.93a9.29,9.29,0,0,0,0,2.45,4.12,4.12,0,0,1-.27,1.37c-.62,1.67-.48,3.56-1,4.75s.79,1,.66,2.77-.79,2.07-1.89,2.07-.13,1.28.88,2.46,1.63,1,1.1,2.51a4.76,4.76,0,0,0,.7,4.44c1,1.36.48,2.42.84,1.71s.79-.7.79-1.93-.13-1-.75-1.1,0-1,0-2.07-.35-.92-.09-1.93a4.13,4.13,0,0,0-.59-3.47c-.85-1.36-.2-.57,0-2.55s.54-2.24.15-3.52,0-2.37,1.28-3.87.44-.57.62-.48A3.14,3.14,0,0,1,42.26,81c.13.75-.26.92-.53,1.71s-.18,1.63-.57,2.11.4.92.44,1.8.22.84.75,1.32.31.48.24,1.36.68.79.2,1.63a3.21,3.21,0,0,0,.66,3.17,3,3,0,0,1,.75,2.55c0,1.14,1.14,1.1,1.14,3.61s.88,2.51,1.14,3.12a2.64,2.64,0,0,1-.48,2.29,4.15,4.15,0,0,0-.84,2.86c.18,1.14,2.15,2.31,2.25,2.9a2.85,2.85,0,0,0,2.67,2c1.81.2.63.13,1.32,1a11.1,11.1,0,0,0,2.24,2c.66.43,1.55.46,3.43,1.32s.59.92,1.32,1a9,9,0,0,1,2.31.73c1.65.59,1.06.26,2-.26s1.45-1.85,3.26-1.62,0,.4,1.75.63.2,0,.76.66,1.61,2,2.68,3.43c.27.37.54.74.78,1.09,1.22,1.75,2.08,1,3.63.86a8,8,0,0,1,.81,0c.49,0,.18.27.18,1.08,0,1.09.43.73,1.71,1.35s1.58.2,3-.63.5.36.14,1.12,0,.76,1.15,1.75,1.19,2.8,3,2.93-.06-1,.4-1.88,2,1.75,2.57,2.44-.26.26-1.32.26-.46,0-1.29.49,0,1.06,0,1.95.23,1.62,1.81,1.48,1.71.89,1.71.89l.86,1a4.61,4.61,0,0,1,.49,1.52c0,.56-.1.56,1.06,1.52a1.32,1.32,0,0,0,1.95,0,27,27,0,0,0,3.33.92c.66,0,.36.07,1.42.76s.4,1,.63,2,.36,0,1.29-.36a1.79,1.79,0,0,0,1.12-.82l-.26-1-1-1.29s1.29-.23,1.91-.4.89-1.15,1.62-1.52,3.1.56,3.2,1.48a13.53,13.53,0,0,0,.26,2.24c.2.69,1.19,1.15,1.35,1.78s1,1.68.66,2.11.76,1,.13,1.65.26,2.67-.4,3.69.36,1.65.36,2.74a3.78,3.78,0,0,1-1.65,2.57c-.36.1-2.31.16-2.51,1.25s-1,1.09-1,1.09a1.15,1.15,0,0,0-.07.79c.13.4.07.49-.53,1.19s-.66.26-2.64.4-.56.1.26,1.42-.3.49-.73.79-.46,1-.92,1.85-.69.13-.56,1a3.51,3.51,0,0,1-.36,2.8c-.69,1.12-.2.86.33,1.48s.66,0,2,.89.26,1.68-.63,1.68,0,0-1,.66-.4.43-1.91,2.24-.26.79.82,2.34.3,1.81-.36,2,1.15.82,3.43,2.44.79.43,1.22,1.58.26.59,1.58,1.78,2.47,5.11,3.33,6a4.34,4.34,0,0,1,1.29,2.8c0,.89-.07,1,.79,1s1.52,1.68,2.64,2.9,1.29,1.52,1.32,2.34-.26,1.19,0,1.91,1.38,1.32,3.43,2.87a20.36,20.36,0,0,0,7.32,4c4.48,1.62.89.73,2.7,1.58s.13.69.53,1.15,1.58.3,2.57,1a6.47,6.47,0,0,1,.77.55c.17.17.17.31.25.7.13.69.26,1,.63,3a13.8,13.8,0,0,1,.3,3c.13,1.88-.16,1-.46,3.07s-.13,2.9-.89,3.51-.56.74-.07,1.21.2.89.53,2.47.36,2.21.07,2.87.36,1.09-.23,2-.4,1-.3,2-.16,1.52-1,2.9.13,1.42.16,3.1-1,1.45-.69,2.64a29.38,29.38,0,0,1,.73,2.94c.2,1.22,0,1.22-.3,2.31s-.76,3.1-1,3.83a23.33,23.33,0,0,1-.82,2.47c-.56,1.32-.82.43-.82,1.29s-.1.46-.66.86-.43.3-.13,1.15a22.73,22.73,0,0,0,.79,2.14,6.2,6.2,0,0,1,.4,1l-.49.89a3.67,3.67,0,0,1-.73,1c-.46.53-.23,1,0,1.71s0,.23.07,1.15a1.92,1.92,0,0,1-.26,1.32,3.06,3.06,0,0,1-.82,1.22c-.49.56-.13.3,0,.63s.53,0,1.22,0,.26-.13.4-.23a7.37,7.37,0,0,0,.53-1.25,5.63,5.63,0,0,1,.76-1.81c.59-.92,1.15,0,1.15,0l-.1,1.38s-.26.56-.59,1.35-.23.56-.16,1.45-.11,1.34-.11,2.42-.35,1.1-.59,1.08-.44-.29-.73-.77a13.11,13.11,0,0,1-.46-1.23c-.26-.55-.09.26-.46.68s-.53.42-.68,1-.53.64-1.32.68-1.43,0-3,0,.62.18,1.69.44a3.59,3.59,0,0,0,2.57-.11c.7-.35.4,0,.62.09a7.07,7.07,0,0,0,1.28.09c.64,0,.2.51-.22.62s-.46.24-.62.57.42.55.42.55-.15.55-.42.51-.44-.13-.77-.2a1.73,1.73,0,0,0-1,.37c-.18.13.4.7.4.7a3.74,3.74,0,0,1,.77-.29c.44-.11.31,1.16.59,1.29s.2,1.25.2,1.32l0,0a1.16,1.16,0,0,1,.35-.35,3.25,3.25,0,0,1,.77.22V285l-.74.35c-.42.2-.08.24,0,.37s.82,0,.82,0a2.89,2.89,0,0,1,1.08.37c.33.26,1.19.77,1.19.77s-.09.79-.44.7-.4-.26-.57-.31,0,.35-.22.62a.42.42,0,0,0,0,.53l1.54.53,1.49.75,1.23-.13.88-.4.44.4a4,4,0,0,0-.18.7c0,.18,1.58.7,1.58.7a13.06,13.06,0,0,1,1.41.25c.39.12,1.3-.25,2-.08h0a7.4,7.4,0,0,0,2,0l2.44-.22a2.38,2.38,0,0,0,.7-.26c.26-.18-.84-.31-1.23-.53a17.38,17.38,0,0,0-1.63-.75c-.35-.13-.75.35-1,0a12.88,12.88,0,0,1-.85-1,7.23,7.23,0,0,0-1.21-1.66c-.53-.48-.82-1-.26-1.57.34-.32.38-.37,1.7-.41s.89-.26,1-1,.1-.76,1.35-1.29,1.42-.4,2.64-2.24-.13-.66-.33-.53-1.15.49-2.74-.4-.46-1,.07-1.75,1.71-.82,3-.89.26-.46.92-.92.36-.16.56-1,0-1,1.22-1.42-.66-.86-.46-1.38-.59-.13-.33-1.32-.79-.2-.26-1.58,1.52.53,4.68.59,2.31-.86,2.31-.86-1.38-1.25-.46-1.91,0-1,.07-2.18.66.07,2.11.33,3.17.4,8-1.25,4.68-3.76,3.89-3.89-1.25,0-.59-.66.07-1.06-.26-1.52-2.37-1.45-2.44-1.71,0-.73.53-.66,3.43,1.19,3.43,1.19,2.57.4,4.22.46,1.85-.2,3.17-1.38c.52-.47,1.08-1,1.69-1.68a31,31,0,0,1,3.32-3.07,5.8,5.8,0,0,1,1.51-1,3.75,3.75,0,0,0,.14-.79c0-.4.56-.88.56-.88l1-1.59a1.26,1.26,0,0,1,.73,0c.26.13.63.53.33.82a12.68,12.68,0,0,0-1.58,1.48,1.54,1.54,0,0,0-.35.72c.23-.08.54-.21.94-.39,2.47-1.12,1.87-2.11,3.19-3.56a7,7,0,0,1,3.65-2.55c1.93-.7,1-1.45,1.32-3.21a8.2,8.2,0,0,1,1.14-3.57c1-1.75,1.15-1,2.77-2.11s2-2,3.89-2.87,1.58-1.58,3-1.52.79-.07,1.91-1.19,2.44-.66,5.08-.46.79-.86,1.91-1.39a2.34,2.34,0,0,0,1.65-2,3.8,3.8,0,0,1,2-2.44,3.37,3.37,0,0,0,1.65-1.85c.46-.92,1.12-1.19,1.71-2.37s.86-2.77,1.19-2.24.2-1,1.39-2.64,1.12-3.23,1.58-5,.73-4.16,1.19-5.74,1.06-1.19,1.32-.2.66-1.19,2.24-3.1,2.31-3,2.84-3.76,1.19-1.12,2.24-2.64,1.45-3,2.9-5.08.53-5,.4-6.73S234.36,179.14,232.52,179.21ZM136,38.11c.06-.44.2-.4,1-.48,0,0,.88.44.7.92s0,0-1.22.18S135.92,38.55,136,38.11Zm-5.47-2.55a3.86,3.86,0,0,1,1.32-.75,3.77,3.77,0,0,1-.26,1.8c-.4,1.1-.79,1.49-1.06,1.23s-1.32-1.45-1.32-1.45Zm-2.42,3.92c.62-.26.66.13.66.92l-.79.26s-.84-.18-.79-.57S127.48,39.74,128.09,39.48Zm-2.55-9a6.31,6.31,0,0,1,1.89-.44,3.66,3.66,0,0,1-1.14,1.8c-.84.62-.57.4-.7,0s-.22-.53-1.06-1S124.53,30.86,125.54,30.46ZM139.8,17.41s-.84.18-.94,0,.13-.59.13-.59l.66-.16a.8.8,0,0,1,.48.2Zm.12-2.38a3.54,3.54,0,0,1,.7,0c.22,0,1.23.62,1,.66a7.55,7.55,0,0,1-1,0s-.44-.09-.4.44-.66,0-.66,0S139.7,15.07,139.92,15Zm-23,34.3,2.29.31,1.58-.84,1-.53.79.33.35.15a13,13,0,0,1-.92,1.67c-.48.7-2.37.26-2.37.26s-1.23,0-2.59,0-.88.86-.88.86l-2,.77a11.12,11.12,0,0,0-4.31,1.92c-1.89,1.48-2.37,0-2.37,0s-.79-1.26,0-2,.88-.71,1.14-.67,0,.88.48.62c0,0,1-.18,2.07-.26a6.75,6.75,0,0,0,1.67-.34,9.63,9.63,0,0,0,1.58-.54c1-.35.62-.62.62-.62l.27-.88ZM101.62,37c.57-1.19,0,0,.88-.26a5.41,5.41,0,0,1,.7,1.85c0,.75-.44.22-2.11.39S101.05,38.2,101.62,37Zm-6-.44c.18-1.19,0,0,1,0l1.76.84-.79.7S95.47,37.76,95.64,36.57ZM93.93,42.9l4.44-1.54L102.72,40s2.37-1.27,2.95,0a14.22,14.22,0,0,0,1.1,1.88,6.43,6.43,0,0,1,.66,1.73s-1.67,1.23,1.49,1.23,3.39-1.19,4.79,0,1.49.31,1.45,1.54.48,1.93-.57,1.45-1.85-.84-2.29-.44a10.1,10.1,0,0,0-1.19,1.76s-.62,1.5-1.1,1.63-1.32.26-1.32.26.13-1.71-.26-2-1.14.7-1.76.57,1.19-1,1.49-2a1.35,1.35,0,0,0-1.32-1.76c-.79,0-.35-.66-1.36.09s-2.28,1.8-2.28,1.8-2,.44-2.25,1.67.31,1.49-.31,2.46-1.28,1.93-1.28,1.93-1.06.75-1.41.26.4-4.44.4-4.44l1-2.77L102,45.54s1.49-.35,2.2-.44A4.33,4.33,0,0,1,105.8,45c.35.13.88-.09.13-.88s-2.72,0-2.72,0c-.49.13,0,.44-1.19,0s.2-.66-1.66-.53a15.85,15.85,0,0,0-3.36.62L95.29,44a6.07,6.07,0,0,1-1.36,0C93.44,43.87,93.93,42.9,93.93,42.9Zm-2.46-2.55c-.53.18,0,0-.94-.62s0-.35,1.16-1.14a6.84,6.84,0,0,1,.62,1.19C92.39,40.13,92,40.18,91.46,40.35ZM90.23,27.6c.44-1.67-.22-.62,1.1-1.71l1,1.46a20.32,20.32,0,0,1-2.07,2.06C89.18,30.28,89.79,29.27,90.23,27.6Zm-.58,5.72c.08-1.19.45-.66,1.55-1.23l.22.75A6,6,0,0,1,91,35.34a16.51,16.51,0,0,1-1.33,2.33c-.19,0,.06-.4.37-1.67S89.57,34.51,89.65,33.32Zm-3.57-6.11a3.88,3.88,0,0,1-1.93,0c-.61-.31-.74-.62,1.93-1Zm1.51,8.55c.35.85-.22,1.83-.26,2.75s-.88.22-.88.22.26-.84.57-1.63-.57-1.45-.57-1.45A5.12,5.12,0,0,0,87,34c.13-.88,0-.88.84-1.49C87.86,32.53,87.24,34.9,87.6,35.76ZM84,25.05c1.45-.4,1.23-.79,2.86-1.71l1,.79a16.94,16.94,0,0,1-2.29,1.58c-1.36.79-1.67.4-2.9.26S82.58,25.45,84,25.05ZM78.2,113.7l.06,0,.08.08Zm56.59,83h0a.56.56,0,0,0-.21,0Zm-2.83-20,0,0,0,0Zm4.31,24.11c-.49.79-.21.18-.28,1.28s-.19,1.06-.19,1.67.13.31.19.53a1.87,1.87,0,0,1,0,1.1,1.63,1.63,0,0,1-.59.7c-.48.35-.18.7-.44,1.5s-.26.4-.08,1.3l0,.19c.24.36.51.81.89,1.41.77,1.21.28,1.45.16,1.58s-.35-.1-.84-.61a5.21,5.21,0,0,1-.27.75c-.1.16-.43.3-.68.47.25-.16,0-.3.06-.47s-.35-.79-.35-.79h0a1.34,1.34,0,0,0-.32-1.07c-.51-.6-.58-.75-.56-.78a1.86,1.86,0,0,1-.41-.19c-1-.53.16-.75-.15-1.74s.56-.12,1.66.57a2.51,2.51,0,0,1,.73.67c-.18-.9-.16-.51.1-1.3s0-1.14.45-1.5a1.66,1.66,0,0,0,.59-.7,1.87,1.87,0,0,0,0-1.1c-.06-.22-.19.09-.19-.53s.12-.57.19-1.67-.21-.48.28-1.28a1.74,1.74,0,0,0,0-2.14A1.74,1.74,0,0,1,136.26,200.84Zm5.48,17.68c-.18.92-.59.07-1.34-1s-.28-1.14.55-1.43C141.46,215.9,141.92,217.59,141.74,218.52Zm21-48.15c-1.42-1.22-.93-.56-.53-1.25.23-.4,1.19.07,2.24-.16s.07,1.58.46,2.74S164.16,171.59,162.74,170.37Zm1.05-11.28c-.66-1.45-.86-2,0-2.84s1.41-.86.84-1.91a8.12,8.12,0,0,0-1.66-2.62,8.12,8.12,0,0,1,1.66,2.62c.57,1.06,0,1.12-.84,1.91s-.66,1.39,0,2.84.73,2.31,1.66,3a3.56,3.56,0,0,0,1.73.72,3.55,3.55,0,0,1-1.74-.72C164.52,161.4,164.45,160.54,163.79,159.09Zm12.85.61a3.08,3.08,0,0,0,.47,0,3.12,3.12,0,0,1-.53,0l-.43,0Zm-3.64.39.12.31c1,.18,2.26.92,2.84.92-.57,0-1.85-.77-2.86-1l-.11-.28Zm1.07,68.31-.23-.11h0l-.23-.1,0,0-.24-.09,0,0L173,228h0l-.25-.07h0l-.23-.06h0c-.07,0-.14-.26-.22-.28-.46-.12-.87-.54-1.13-.54h0s-.09.18-.12.16v.1s-.06,0-.08,0l-.28,0s-.32,0-.32,0h0s.27,0,.28-.06.19-.07.26-.11a1.14,1.14,0,0,1,.52-.3c.67-.5.68-.71,1.4-.07s2.3,1.25,2,1.44S175.47,229.13,174.07,228.4Zm2.81,7.86.08,0,.07,0Zm-.17-64.47c-.4-.56-.79-.49-1.88-1.09s-1-.81-.3-1.09c.33-.13,1.48.56,2.18,1.42S177.12,172.35,176.72,171.79Zm4.54-11.58a7.52,7.52,0,0,0-1.71-1.1.71.71,0,0,0-.21,0,.3.3,0,0,1,.21,0,6.47,6.47,0,0,1,1.7,1.1h0l1,0C181.52,160.23,181.26,160.2,181.26,160.2Zm2.44,0h.21a1.82,1.82,0,0,1,.67.06C184.39,160.41,184.29,160.24,183.7,160.21Zm12,20.19c-.23-1.09-.36-.79-1.29-1.95s.36-1,.49-2.61c0,0,.16.92.3,1.65s.66,1.19,1,2.74S195.91,181.48,195.68,180.39Zm6.4,42.64c-.56-.3-.49,0-.63,1.06s-.46.53-.46-.56-.53-.79,0-1.62c0,0,.33-.33,1.22,0S202.64,223.33,202.08,223Zm16.06-30.6a2,2,0,0,1-1.78.36c-.86-.1-.33,1.32-.88,1.42a2.79,2.79,0,0,0-2,1.15c-.59.86-1.15,1.58-1.58,1.32s-.16-.36.36-1.52.86-.82,2.14-2.41,1.09-1,1.65-1a3.68,3.68,0,0,0,2.34-.79c1.25-.79.6-.22.79.4C219.33,191.74,218.77,192,218.14,192.43Z"/></g></g></svg>