<svg xmlns="http://www.w3.org/2000/svg" viewBox="0 0 302 300.1"><defs><style>.cls-1{isolation:isolate;}.cls-2,.cls-6{fill:#fff;}.cls-2,.cls-3,.cls-4{stroke:#000;}.cls-2,.cls-3,.cls-4,.cls-7{stroke-miterlimit:10;}.cls-3{fill:#ff0;}.cls-4{fill:#f5f5f5;}.cls-5,.cls-6{mix-blend-mode:multiply;}.cls-7{fill:none;stroke:#ff0;stroke-width:7px;}</style></defs><title>primeraEntrevista_1</title><g class="cls-1"><g id="Layer_2" data-name="Layer 2"><g id="Handshake"><path class="cls-2" d="M175.24,211.26l-24-1.22a10.76,10.76,0,0,0-8.11,3.09L134,222.18a6.39,6.39,0,0,0-.19,9l.09.09a6.39,6.39,0,0,0,9,.19l10.18-10.07,21.3,3.08Z"/><path class="cls-3" d="M178,211.26,154,210a10.76,10.76,0,0,0-8.11,3.09l-9.16,9.05a6.39,6.39,0,0,0-.19,9l.09.09a6.39,6.39,0,0,0,9,.19l10.18-10.07,21.3,3.08Z"/><polygon class="cls-2" points="102.38 207.58 124.42 211.26 155.35 215.03 178.02 237.48 149.02 267.72 117.43 237.65 95.77 235.15 102.38 207.58"/><polygon class="cls-3" points="102.38 207.58 124.42 211.26 155.35 215.03 178.02 237.48 149.02 267.72 117.43 237.65 95.77 235.15 102.38 207.58"/><polygon class="cls-3" points="203.02 205.86 177.96 211.26 146.52 221.43 128.11 233.01 152.68 266.86 187.97 241.1 210.21 235.15 203.02 205.86"/><polygon class="cls-4" points="187.34 206.56 196 240.03 206.35 238.08 197.49 204.21 187.34 206.56"/><polygon class="cls-3" points="193.03 204.06 202.19 241.91 280 226.55 299 174.55 193.03 204.06"/><polygon class="cls-2" points="116.51 206.56 107.86 240.03 97.5 238.08 106.36 204.21 116.51 206.56"/><polygon class="cls-3" points="110.82 204.06 101.66 241.91 21 223.55 4 174.55 110.82 204.06"/><rect class="cls-3" x="113.15" y="233.33" width="31.62" height="10.9" rx="5.4" ry="5.4" transform="translate(-100.56 93.99) rotate(-29.38)"/><rect class="cls-3" x="116.22" y="243.46" width="31.62" height="10.9" rx="5.4" ry="5.4" transform="translate(-105.14 96.79) rotate(-29.38)"/><rect class="cls-3" x="126.8" y="249.36" width="31.62" height="10.9" rx="5.4" ry="5.4" transform="translate(-106.67 102.74) rotate(-29.38)"/><rect class="cls-3" x="136.87" y="255.54" width="31.62" height="10.9" rx="5.4" ry="5.4" transform="translate(-108.41 108.48) rotate(-29.38)"/><path class="cls-3" d="M182.13,256.54l-5.35-5.06a5.4,5.4,0,0,1-.16-7.63l.08-.08a5.4,5.4,0,0,1,7.63-.16l5.35,5.06a5.4,5.4,0,0,1,.16,7.63l-.08.08A5.4,5.4,0,0,1,182.13,256.54Z"/><path class="cls-3" d="M176.64,265.58l-10.59-10.46a5.4,5.4,0,0,1-.16-7.63l.08-.08a5.4,5.4,0,0,1,7.63-.16l10.59,10.46a5.4,5.4,0,0,1,.16,7.63l-.08.08A5.4,5.4,0,0,1,176.64,265.58Z"/><path class="cls-3" d="M164.93,268.66l-7.92-7.2a5.4,5.4,0,0,1-.16-7.63l.08-.08a5.4,5.4,0,0,1,7.63-.16l7.92,7.2a5.4,5.4,0,0,1,.16,7.63l-.08.08A5.4,5.4,0,0,1,164.93,268.66Z"/><path class="cls-3" d="M153.63,272.14l-3-2.7a5.4,5.4,0,0,1-.16-7.63l.08-.08a5.4,5.4,0,0,1,7.63-.16l3,2.7a5.4,5.4,0,0,1,.16,7.63l-.08.08A5.4,5.4,0,0,1,153.63,272.14Z"/><path class="cls-3" d="M124.41,211.26l24-1.22a10.76,10.76,0,0,1,8.11,3.09l9.16,9.05a6.39,6.39,0,0,1,.19,9l-.09.09a6.39,6.39,0,0,1-9,.19l-10.18-10.07-21.3,3.08Z"/><polygon class="cls-6" points="115.67 209.8 108.73 236.65 111.73 236.99 115.67 209.8"/><polygon class="cls-6" points="188 209.1 195.74 239.02 190.71 240.37 188 209.1"/></g><g id="Circulo"><ellipse class="cls-7" cx="151" cy="150.05" rx="147.5" ry="146.55"/></g></g></g></svg>